<svg xmlns="http://www.w3.org/2000/svg" viewBox="0 0 256 256" focusable="false" color="var(--token-b1fb229f-a8e6-4640-b958-ea29fe1a7f0e, rgb(25, 21, 78))" style="user-select: none; width: 100%; height: 100%; display: inline-block; fill: var(--token-b1fb229f-a8e6-4640-b958-ea29fe1a7f0e, rgb(25, 21, 78)); flex-shrink: 0;"><g color="var(--token-b1fb229f-a8e6-4640-b958-ea29fe1a7f0e, rgb(25, 21, 78))" weight="fill"><path d="M128,24A104,104,0,1,0,232,128,104.2,104.2,0,0,0,128,24Zm36.4,110.7-48,32A8.7,8.7,0,0,1,112,168a8.5,8.5,0,0,1-3.8-.9A8,8,0,0,1,104,160V96a8,8,0,0,1,4.2-7.1,8.3,8.3,0,0,1,8.2.4l48,32a8,8,0,0,1,0,13.4Z"></path></g></svg>