<svg xmlns="http://www.w3.org/2000/svg" viewBox="0 0 256 256" focusable="false" color="var(--token-4f326768-226c-4266-8da5-55552e88e90b, rgb(135, 202, 135))" style="user-select: none; width: 100%; height: 100%; display: inline-block; fill: var(--token-4f326768-226c-4266-8da5-55552e88e90b, rgb(135, 202, 135)); flex-shrink: 0;"><g color="var(--token-4f326768-226c-4266-8da5-55552e88e90b, rgb(135, 202, 135))" weight="fill"><path d="M232,56H24A16,16,0,0,0,8,72V184a16,16,0,0,0,16,16H232a16,16,0,0,0,16-16V72A16,16,0,0,0,232,56ZM75,184,24,140.3V115.7L75,72H181l51,43.7v24.6L181,184Zm93-56a40,40,0,1,1-40-40A40,40,0,0,1,168,128Z"></path></g></svg>