<svg xmlns="http://www.w3.org/2000/svg" viewBox="0 0 256 256" focusable="false" color="var(--token-4f326768-226c-4266-8da5-55552e88e90b, rgb(135, 202, 135))" style="user-select: none; width: 100%; height: 100%; display: inline-block; fill: var(--token-4f326768-226c-4266-8da5-55552e88e90b, rgb(135, 202, 135)); flex-shrink: 0;"><g color="var(--token-4f326768-226c-4266-8da5-55552e88e90b, rgb(135, 202, 135))" weight="fill"><path d="M240,112H229.2L201.4,49.5A15.9,15.9,0,0,0,186.8,40H69.2a15.9,15.9,0,0,0-14.6,9.5L26.8,112H16a8,8,0,0,0,0,16h8v80a16,16,0,0,0,16,16H64a16,16,0,0,0,16-16V192h96v16a16,16,0,0,0,16,16h24a16,16,0,0,0,16-16V128h8a8,8,0,0,0,0-16ZM80,160H64a8,8,0,0,1,0-16H80a8,8,0,0,1,0,16Zm96,0a8,8,0,0,1,0-16h16a8,8,0,0,1,0,16Z"></path></g></svg>